# xmcd CD database file
#
# Track frame offsets:
#	150
#	25625
#	50180
#	67635
#	95467
#	129090
#	165510
#	201497
#	233185
#	279490
#	309822
#
# Disc length: 4353 seconds
#
# Revision: 0
# Processed by: cddbd v1.5.1PL0 Copyright (c) Steve Scherf et al.
# Submitted via: CDex 1.51
#
DISCID=8710ff0b
DTITLE=JAZZ STANDARDS BEST 101 - JAZZ STANDARDS BEST 101 VOL.1
DYEAR=1990
DGENRE=Jazz
TTITLE0=After You've Gone 
TTITLE1=Air Mail Special
TTITLE2=All Of Me
TTITLE3=All Of You(Porter)
TTITLE4=All The Things You Are
TTITLE5=Alone Together
TTITLE6=Angel Eyes
TTITLE7=As Time Goes By
TTITLE8=Autumn In New York
TTITLE9=Autumn Leaves
TTITLE10=Baubles, Bangles And Beads
EXTD=YEAR: 1990
EXTT0=
EXTT1=
EXTT2=
EXTT3=
EXTT4=
EXTT5=
EXTT6=
EXTT7=
EXTT8=
EXTT9=
EXTT10=
PLAYORDER=
